<svg width="110" height="28" viewBox="0 0 112 25">
    <g fill="none" fillRule="evenodd">
        <g fillRule="nonzero">
            <path
                    className="logo-path"
                    fill="rgb(255, 255, 255)"
                    d="M85.442 3.442v5.185h4.806v2.56H85.43v7.595c0 1.77 1.067 2.75 2.622 2.75 1.038 0 1.75-.212 2.195-.5l.856 2.348c-.993.597-2.135.899-3.293.87-3.263 0-5.368-1.892-5.368-5.43v-7.625h-3V8.627h3V3.442h3zm-60.02 4.88c2.41 0 4.026 1.006 4.91 2.166l.123-1.86h2.715v15.31h-2.715l-.122-1.86c-.885 1.16-2.5 2.165-4.91 2.165-4.21 0-7.075-3.355-7.075-7.96 0-4.606 2.867-7.96 7.075-7.96zm25.798 0c2.407 0 4.025 1.006 4.91 2.166l.122-1.86h2.713v15.31h-2.713l-.122-1.86c-.885 1.16-2.5 2.165-4.91 2.165-4.21 0-7.075-3.355-7.075-7.96 0-4.606 2.867-7.96 7.075-7.96zm55.002-.004c2.058.005 3.908.705 5.098 1.682l-1.29 2.318c-1.079-.873-2.425-1.347-3.813-1.343-1.707 0-2.805.518-2.805 1.77 0 1.253.885 1.555 3.203 2.103 3.568.854 5.185 2.32 5.185 4.635 0 2.897-2.38 4.75-6.13 4.75-2.317 0-4.453-.733-5.825-1.86l1.373-2.38c1.252 1.056 2.846 1.62 4.484 1.585 1.83 0 3.08-.61 3.08-1.92 0-1.25-.914-1.708-3.262-2.25-3.567-.826-5.093-2.076-5.093-4.486 0-2.897 2.225-4.604 5.795-4.604zM4.322 1.54l6.223 9.82 6.193-9.82h3.66l-8.3 12.913v9.485h-3.11V14.5L.693 1.54h3.63zm36.53-.79v23.188h-3V.75h3zM96.56 8.627v15.31h-3V8.627h3zm-25.24-.305c3.71 0 5.818 2.623 5.818 6.556v9.057h-3V15.06c0-2.318-1.373-3.905-3.538-3.905-1.8 0-3.02 1.098-3.965 2.44v10.338h-3V8.627h2.715l.12 1.86c.885-1.127 2.5-2.165 4.85-2.165zm-45.35 2.653c-2.69 0-4.605 2.135-4.605 5.307 0 3.173 1.923 5.305 4.605 5.305 2.043 0 3.295-1.097 4.21-2.592v-5.428c-.915-1.5-2.165-2.592-4.21-2.592zm25.797 0c-2.682 0-4.605 2.135-4.605 5.307 0 3.173 1.923 5.305 4.605 5.305 2.043 0 3.295-1.097 4.21-2.592v-5.428c-.914-1.5-2.164-2.592-4.21-2.592z"
            ></path>
            <path
                    fill="#FF6300"
                    d="M97.047 3.688c0 1.078-.874 1.952-1.952 1.952-1.078 0-1.953-.874-1.953-1.952 0-1.079.875-1.953 1.953-1.953.522-.012 1.025.19 1.394.558.37.369.571.873.558 1.394z"
            ></path>
        </g>
    </g>
</svg>
